<svg width="33" height="32" viewBox="0 0 33 32" fill="none" xmlns="http://www.w3.org/2000/svg">
<path d="M29.1826 15.2092C30.5523 13.727 31.3631 11.8838 31.3631 9.8964C31.3631 4.98739 26.4272 1 20.34 1C14.2528 1 9.31689 4.98263 9.31689 9.8964C9.31689 14.8102 14.2528 18.7928 20.34 18.7928C21.9231 18.7973 23.4941 18.5173 24.9782 17.9662V17.9662L30.6426 20.9987L29.1826 15.2076V15.2092Z" stroke="#19495C" stroke-width="2" stroke-linecap="round" stroke-linejoin="round"/>
<path d="M22.8214 21.6905C21.7936 25.7444 17.3486 28.7943 12.0231 28.7943C10.44 28.7989 8.86894 28.5189 7.38489 27.9677L1.72051 31.0002L3.18055 25.2091C1.81078 23.7269 1 21.8837 1 19.8963C1 16.6294 3.18214 13.7727 6.43317 12.2256" stroke="#19495C" stroke-width="2" stroke-linecap="round" stroke-linejoin="round"/>
</svg>
