<svg width="17" height="16" viewBox="0 0 17 16" fill="none" xmlns="http://www.w3.org/2000/svg">
<path d="M0 4.28859C0.0950765 3.54157 0.324726 2.81795 0.677836 2.15282C1.59425 0.638082 3.02568 0.081417 4.68053 0.0435486C6.93496 -0.0145162 9.19065 -0.0145162 11.4476 0.0435486C12.9623 0.081417 14.3407 0.585066 15.2723 1.91046C15.8342 2.75118 16.1261 3.74332 16.1092 4.75437C16.1433 6.92044 16.1584 9.0903 16.1092 11.2564C16.0675 12.9983 15.4616 14.4903 13.8371 15.3765C13.0891 15.7711 12.2554 15.9753 11.4097 15.971C9.18308 15.9975 6.95642 16.0202 4.73355 15.971C3.06355 15.9293 1.61319 15.3689 0.685417 13.8541C0.330703 13.191 0.100932 12.4684 0.00756951 11.7222L0 4.28859ZM8.07732 1.56964C6.97156 1.56964 5.86581 1.54692 4.76006 1.56964C3.03326 1.6113 1.97294 2.42168 1.65864 3.90612C1.58645 4.22321 1.54585 4.54667 1.53746 4.87177C1.53746 6.96589 1.49959 9.06001 1.53746 11.1503C1.57532 13.2407 2.63185 14.3464 4.63888 14.4222C6.91098 14.5055 9.18308 14.4979 11.4552 14.4222C13.129 14.3692 14.106 13.5626 14.443 12.116C14.5073 11.8579 14.5453 11.594 14.5566 11.3283C14.5566 8.94261 14.6967 6.55312 14.4847 4.1712C14.4455 3.52178 14.1729 2.90841 13.717 2.44421C13.2612 1.98001 12.6529 1.69629 12.0043 1.64538C10.7016 1.4674 9.38756 1.59615 8.07732 1.56964Z" fill="#19495C"/>
<path d="M12.2353 8.02978C12.2353 8.85364 11.991 9.659 11.5333 10.344C11.0756 11.029 10.425 11.5629 9.66389 11.8782C8.90274 12.1935 8.0652 12.276 7.25717 12.1153C6.44913 11.9545 5.70691 11.5578 5.12435 10.9752C4.5418 10.3927 4.14507 9.65047 3.98434 8.84243C3.82361 8.0344 3.9061 7.19685 4.22138 6.4357C4.53665 5.67455 5.07057 5.02399 5.75558 4.56628C6.4406 4.10856 7.24596 3.86426 8.06982 3.86426C9.17213 3.87219 10.2271 4.3136 11.0065 5.09308C11.786 5.87255 12.2274 6.92746 12.2353 8.02978ZM10.6865 8.02978C10.6971 7.50337 10.5506 6.98576 10.2658 6.54292C9.98099 6.10008 9.57076 5.75209 9.08742 5.5433C8.60407 5.33451 8.0695 5.2744 7.55186 5.37061C7.03421 5.46683 6.55695 5.71502 6.18091 6.08354C5.80487 6.45206 5.54709 6.92421 5.44044 7.43981C5.33378 7.95541 5.38309 8.49108 5.58207 8.97855C5.78105 9.46601 6.12068 9.88318 6.55767 10.1769C6.99467 10.4706 7.50923 10.6274 8.03574 10.6275C8.73028 10.6236 9.39553 10.3473 9.88842 9.85794C10.3813 9.36859 10.6625 8.70534 10.6714 8.01085L10.6865 8.02978Z" fill="#19495C"/>
<path d="M12.349 2.76276C12.6165 2.75972 12.8743 2.86283 13.0659 3.04951C13.2576 3.23618 13.3674 3.4912 13.3714 3.7587C13.3556 4.01763 13.2416 4.26078 13.0527 4.43854C12.8637 4.6163 12.6141 4.71528 12.3547 4.71528C12.0952 4.71528 11.8456 4.6163 11.6566 4.43854C11.4677 4.26078 11.3537 4.01763 11.3379 3.7587C11.3384 3.62677 11.365 3.49624 11.4162 3.37464C11.4673 3.25304 11.5421 3.14278 11.636 3.05019C11.73 2.95761 11.8414 2.88455 11.9638 2.83522C12.0861 2.78589 12.217 2.76126 12.349 2.76276Z" fill="#19495C"/>
</svg>
