<svg width="31" height="32" viewBox="0 0 31 32" fill="none" xmlns="http://www.w3.org/2000/svg">
<path d="M3.30992 14.7177C1.42417 15.3463 0.491432 17.6883 1.28223 19.9492C2.07303 22.2101 4.17169 23.5382 6.06758 22.9197C6.23689 22.862 6.39994 22.7872 6.55423 22.6967L3.87767 14.5859L3.30992 14.7177Z" stroke="#19495C" stroke-width="2" stroke-linecap="round" stroke-linejoin="round"/>
<path d="M14.3706 10.4896L3.6543 14.038L3.83678 14.5957L6.51335 22.7064L6.70598 23.2742L17.4223 19.7358C22.3597 18.1035 29.9129 21.7128 29.9129 21.7128L23.0694 1C21.285 5.20745 14.3706 10.4896 14.3706 10.4896Z" stroke="#19495C" stroke-width="2" stroke-linecap="round" stroke-linejoin="round"/>
<path d="M10.123 24.6333L15.4153 31.0002L19.6735 29.591L14.0061 23.3457L10.123 24.6333Z" stroke="#19495C" stroke-width="2" stroke-linecap="round" stroke-linejoin="round"/>
</svg>
