<svg viewBox="0 0 23 40" fill="none" xmlns="http://www.w3.org/2000/svg">
    <path
        d="M13.6436 26.7719C12.36 26.7719 11.3195 25.7313 11.3195 24.4477C11.3195 23.1641 12.36 22.1236 13.6436 22.1236C14.9272 22.1236 15.9678 23.1641 15.9678 24.4477C15.9678 25.7313 14.9272 26.7719 13.6436 26.7719Z"
        fill="#EFEFEF" />
    <path
        d="M7.1546 31.9419L10.2581 32.0673C10.4356 32.0676 10.6066 32 10.736 31.8784C10.8653 31.7568 10.9433 31.5903 10.954 31.4131V30.752C10.9554 30.5805 10.8935 30.4145 10.78 30.2859C6.34741 25.1853 6.03428 22.4297 6.02036 22.3184L5.85335 20.6343L6.6675 22.1166C8.55326 25.5402 12.6379 27.4746 13.1529 27.6834C18.7197 28.0104 19.8191 30.9052 19.8609 31.0305L20.1879 31.921L19.3599 31.4479C17.2723 30.251 15.6718 30.098 15.0386 31.0305C14.821 31.4249 14.7511 31.884 14.8417 32.3254C14.9322 32.7667 15.1773 33.1613 15.5327 33.4381C17.3419 34.8785 20.348 37.9333 20.4802 38.0655L22.3799 40L20.0488 38.6083C14.8159 35.4769 8.9847 33.7372 8.35843 34.1965C8.00355 34.8923 8.14967 36.7782 8.23317 37.4602L8.37234 38.5804L7.62778 37.7384C6.79276 36.7921 6.23607 34.8437 5.8951 33.3754C5.85538 33.195 5.85774 33.0078 5.90199 32.8284C5.94625 32.649 6.03122 32.4821 6.15031 32.3408C6.26941 32.1995 6.41943 32.0876 6.58876 32.0136C6.75809 31.9396 6.94218 31.9055 7.12677 31.9141L7.1546 31.9419Z"
        fill="#EFEFEF" />
    <path
        d="M0.492231 3.64175C0.985111 2.31335 1.95852 1.21832 3.21998 0.573092C4.50907 -0.0436609 5.97929 -0.167417 7.35335 0.225165C8.04576 0.431442 8.68748 0.779884 9.23746 1.24839C9.78745 1.71689 10.2336 2.29508 10.5473 2.94589C10.9258 3.7191 11.1951 4.54109 11.3475 5.38835C12.385 4.47707 13.6772 3.9062 15.0495 3.75302C15.9861 3.65874 16.9321 3.75107 17.8329 4.0245C18.7631 4.33041 19.5562 4.95359 20.0736 5.78503C20.5174 6.5833 20.7715 7.47304 20.8161 8.38531C20.8608 9.29758 20.6948 10.2078 20.331 11.0456C19.6467 12.6389 18.5866 14.0429 17.2414 15.1373C18.3986 13.9159 19.2729 12.4549 19.8022 10.8578C20.052 10.1064 20.1335 9.30903 20.0409 8.52258C19.9483 7.73612 19.6839 6.97979 19.2664 6.30692C18.8461 5.70031 18.225 5.26162 17.5128 5.06828C16.7633 4.88958 15.9874 4.84938 15.2235 4.94987C14.4637 5.06746 13.7348 5.33476 13.079 5.7361C12.4232 6.13745 11.8536 6.66493 11.4032 7.28801L10.2968 8.72848L10.2063 6.88436C10.1554 5.73707 9.86384 4.61331 9.35045 3.58602C9.12041 3.10467 8.79431 2.67559 8.39223 2.32496C7.99014 1.97433 7.52056 1.70961 7.01238 1.54722C5.96134 1.24657 4.83803 1.32545 3.83929 1.76994C2.83886 2.24696 2.05585 3.08457 1.64735 4.11488C1.21754 5.20362 1.01392 6.3686 1.04892 7.5386C1.09651 8.75138 1.27617 9.9553 1.58471 11.1291C2.25529 13.5256 3.18877 15.8406 4.36813 18.032L3.33132 16.4593C2.97643 15.9374 2.712 15.3669 2.39191 14.8242C2.07182 14.2814 1.82131 13.6969 1.55689 13.1194C1.28314 12.5475 1.0506 11.9568 0.861032 11.3519C0.435127 10.1355 0.161661 8.87086 0.0468845 7.58718C-0.086401 6.25532 0.0654125 4.91039 0.492231 3.64175Z"
        fill="#FF8614" />
</svg>