<svg width="21" height="30" viewBox="0 0 21 30" fill="none" xmlns="http://www.w3.org/2000/svg">
<g clip-path="url(#clip0_145_1341)">
<path d="M2.86985 10.6951C1.83371 11.3673 1.07439 12.3903 0.730954 13.5767C0.387513 14.7631 0.482937 16.0335 0.999745 17.1553C1.51655 18.277 2.42016 19.1751 3.54509 19.685C4.67002 20.1949 5.94099 20.2825 7.12525 19.9318C8.30951 19.5811 9.3278 18.8155 9.99365 17.7753C10.6595 16.735 10.9283 15.4897 10.7509 14.2674C10.5735 13.0451 9.96177 11.9276 9.02767 11.1196C8.09357 10.3115 6.89965 9.86702 5.66455 9.86743" stroke="#19495C" stroke-linecap="round" stroke-linejoin="round"/>
<path d="M11.899 16.4672C12.8652 16.1354 13.7274 15.5559 14.3994 14.7864C15.0715 14.017 15.5298 13.0847 15.7285 12.0826C15.9273 11.0806 15.8596 10.0439 15.5322 9.07623C15.2047 8.10855 14.6291 7.24375 13.8627 6.56828C13.0963 5.89281 12.166 5.43034 11.1648 5.22706C10.1637 5.02379 9.12673 5.08685 8.15758 5.40993C7.18844 5.73302 6.32107 6.30482 5.64217 7.06817C4.96326 7.83153 4.49661 8.7597 4.28884 9.75993C4.20514 10.1484 4.16548 10.545 4.17061 10.9423C4.17132 12.3118 4.65267 13.6375 5.53072 14.6884C6.40877 15.7393 7.62783 16.4487 8.97534 16.6929" stroke="#19495C" stroke-linecap="round" stroke-linejoin="round"/>
<path d="M5.67529 20.1433V29.4626" stroke="#19495C" stroke-linecap="round" stroke-linejoin="round"/>
<path d="M1.97778 26.0874H9.6847" stroke="#19495C" stroke-linecap="round" stroke-linejoin="round"/>
<path d="M16.5746 0.537476H20.4334L13.9626 6.67506" stroke="#19495C" stroke-linecap="round" stroke-linejoin="round"/>
<path d="M20.4336 4.26732V0.537476" stroke="#19495C" stroke-linecap="round" stroke-linejoin="round"/>
</g>
<defs>
<clipPath id="clip0_145_1341">
<rect width="20.971" height="30" fill="white"/>
</clipPath>
</defs>
</svg>
