<svg width="27" height="32" viewBox="0 0 27 32" fill="none" xmlns="http://www.w3.org/2000/svg">
<path d="M26.3438 11.4701C26.1766 8.7651 25.0309 6.21333 23.1206 4.29091C21.2103 2.36849 18.6658 1.20676 15.9619 1.02247C14.4462 0.925941 12.9269 1.14109 11.4977 1.65463C10.0685 2.16817 8.75968 2.96919 7.6521 4.00827C6.54452 5.04735 5.66166 6.30242 5.05805 7.696C4.45443 9.08957 4.14287 10.5921 4.14257 12.1108C4.14257 12.1765 4.14257 12.2463 4.14257 12.312H4.08918L1.15282 17.1457C1.07482 17.2731 1.02523 17.4159 1.00742 17.5642C0.9896 17.7126 1.00397 17.863 1.04958 18.0053C1.09518 18.1475 1.17095 18.2783 1.27169 18.3887C1.37242 18.499 1.49576 18.5863 1.63331 18.6446L4.23702 19.7453V23.926C4.2381 24.3914 4.42378 24.8375 4.7533 25.1662C5.08281 25.4949 5.52927 25.6796 5.99473 25.6796H9.05017C9.44119 25.6796 9.81619 25.8349 10.0927 26.1114C10.3692 26.3879 10.5245 26.7629 10.5245 27.1539V30.0286C10.5239 30.1054 10.5387 30.1814 10.5678 30.2524C10.5969 30.3234 10.6398 30.3879 10.6941 30.4422C10.7483 30.4965 10.8128 30.5394 10.8838 30.5685C10.9548 30.5976 11.0309 30.6123 11.1076 30.6118H22.0769C22.1532 30.6118 22.2289 30.5967 22.2994 30.5673C22.3699 30.538 22.4339 30.495 22.4878 30.4408C22.5416 30.3865 22.5842 30.3222 22.613 30.2515C22.6419 30.1808 22.6564 30.105 22.6559 30.0286V20.3983C23.9043 19.2847 24.8845 17.903 25.5232 16.3569C26.1619 14.8107 26.4424 13.1401 26.3438 11.4701Z" stroke="#19495C" stroke-miterlimit="10"/>
<path d="M20.7462 10.3737C20.7176 9.72065 20.4578 9.09899 20.0132 8.61978C19.5686 8.14057 18.9682 7.83502 18.319 7.75771C17.7211 7.69304 17.1186 7.82848 16.6058 8.14282C16.0931 8.45716 15.699 8.93265 15.4854 9.49486C15.2717 8.93265 14.8777 8.45716 14.3649 8.14282C13.8522 7.82848 13.2497 7.69304 12.6517 7.75771C12.0107 7.8328 11.4165 8.13116 10.9735 8.60049C10.5305 9.06982 10.2668 9.68015 10.2287 10.3244C10.2059 10.7647 10.2909 11.204 10.4762 11.604C10.6616 12.004 10.9417 12.3528 11.2924 12.6201L15.1569 16.0698L18.4423 13.4949C18.8078 13.2115 19.1979 12.961 19.5757 12.6982C19.9496 12.4395 20.2527 12.0912 20.4572 11.6851C20.6616 11.279 20.761 10.8281 20.7462 10.3737V10.3737Z" stroke="#19495C" stroke-miterlimit="10"/>
</svg>
