<svg width="29" height="31" viewBox="0 0 29 31" fill="none" xmlns="http://www.w3.org/2000/svg">
<g clip-path="url(#clip0_145_1350)">
<path d="M0.707354 16.2606C0.800415 16.3532 0.925802 16.406 1.05705 16.4078H8.83297C8.73639 16.9611 8.68415 17.5211 8.6766 18.0827C8.67538 18.1467 8.6868 18.2104 8.71019 18.27C8.73358 18.3297 8.76842 18.3841 8.81286 18.4302C8.8573 18.4764 8.9104 18.5133 8.96912 18.539C9.02783 18.5646 9.09109 18.5784 9.15514 18.5796H19.885C20.0096 18.5773 20.1287 18.5274 20.2177 18.4401C20.3067 18.3529 20.3588 18.2348 20.3635 18.1103C20.3741 17.5434 20.334 16.9768 20.2439 16.417H28.0751C28.1989 16.4171 28.3179 16.3692 28.4071 16.2834C28.4964 16.1977 28.5488 16.0806 28.5536 15.9569C28.5536 15.7821 28.664 11.8619 26.1978 9.60731C26.1132 9.531 26.0034 9.48877 25.8895 9.48877C25.7756 9.48877 25.6658 9.531 25.5813 9.60731C25.5813 9.60731 22.6825 11.7791 20.0599 9.60731C19.9721 9.53393 19.8613 9.49373 19.7469 9.49373C19.6325 9.49373 19.5218 9.53393 19.4341 9.60731C18.8039 10.2045 18.2892 10.9126 17.9157 11.6962C17.836 11.6628 17.7488 11.6511 17.6631 11.6624C17.5774 11.6738 17.4963 11.7077 17.428 11.7607C17.3084 11.8435 14.5201 13.9232 11.9066 11.7607C11.8419 11.7116 11.7664 11.6785 11.6865 11.6641C11.6065 11.6497 11.5243 11.6544 11.4465 11.6778C11.0999 10.9034 10.6025 10.2058 9.98326 9.62572C9.89633 9.5506 9.7853 9.50926 9.67041 9.50926C9.55552 9.50926 9.4445 9.5506 9.35756 9.62572C9.35756 9.62572 6.46803 11.7975 3.83617 9.62572C3.74842 9.55234 3.63771 9.51213 3.52332 9.51213C3.40893 9.51213 3.29811 9.55234 3.21036 9.62572C2.38651 10.46 1.73815 11.4509 1.30351 12.5399C0.868865 13.6288 0.656757 14.7938 0.679721 15.9661C0.658821 16.0648 0.668477 16.1675 0.707354 16.2606ZM19.7653 10.5828C20.6639 11.1707 21.7145 11.4838 22.7883 11.4838C23.8622 11.4838 24.9127 11.1707 25.8113 10.5828C26.9154 11.9693 27.5359 13.6788 27.5781 15.4508H20.0322C19.7739 14.3439 19.2813 13.3052 18.5875 12.4048C18.89 11.7437 19.2867 11.13 19.7653 10.5828ZM11.5754 12.7453C12.474 13.3332 13.5244 13.6464 14.5982 13.6464C15.6721 13.6464 16.7226 13.3332 17.6212 12.7453C18.7254 14.1319 19.3459 15.8414 19.3881 17.6133H9.6612C9.74862 15.8248 10.4212 14.1144 11.5754 12.7453ZM3.46805 10.5828C4.36665 11.1707 5.41721 11.4838 6.49105 11.4838C7.56489 11.4838 8.61534 11.1707 9.51393 10.5828C9.991 11.1083 10.3684 11.7164 10.6275 12.3772C9.90751 13.2893 9.37286 14.3334 9.05382 15.4508H1.56322C1.64396 13.6624 2.31362 11.951 3.46805 10.5828Z" fill="#19495C"/>
<path d="M6.42195 9.16565C7.02416 9.16888 7.62099 9.05167 8.17726 8.82095C8.73354 8.59022 9.23804 8.25062 9.66118 7.82211C9.779 7.70302 9.88961 7.57705 9.99246 7.44482C10.161 8.52606 10.7094 9.51184 11.5392 10.2252C12.3689 10.9386 13.4258 11.3329 14.52 11.3374C15.635 11.3462 16.715 10.9498 17.5597 10.2219C18.4043 9.49411 18.9559 8.48437 19.112 7.3804C19.5406 7.95185 20.0963 8.41566 20.7352 8.73511C21.3741 9.05456 22.0786 9.22087 22.7929 9.22087C24.0132 9.22087 25.1835 8.7361 26.0464 7.87322C26.9093 7.01033 27.3941 5.84001 27.3941 4.6197C27.385 3.71757 27.1109 2.83801 26.6058 2.09044C26.1008 1.34286 25.3872 0.760254 24.5536 0.415073C23.7201 0.0698922 22.8034 -0.0226215 21.9177 0.149026C21.032 0.320674 20.2164 0.748906 19.5721 1.38048C18.8582 2.09222 18.4016 3.02149 18.2746 4.02156C17.8778 3.502 17.3749 3.07296 16.7993 2.76302C16.2237 2.45308 15.5886 2.26935 14.9365 2.22407C14.2843 2.17879 13.63 2.27301 13.0171 2.50044C12.4042 2.72787 11.8468 3.08329 11.382 3.54303C11.2624 3.66266 11.152 3.7915 11.0415 3.92033C10.9109 3.04775 10.5322 2.23112 9.95044 1.56775C9.36872 0.904386 8.60856 0.422263 7.76051 0.178837C6.91245 -0.0645897 6.0123 -0.0590645 5.1673 0.194774C4.3223 0.448612 3.56807 0.940053 2.99455 1.61052C2.42103 2.28099 2.05241 3.10222 1.93255 3.97634C1.81269 4.85046 1.94666 5.74062 2.31853 6.54072C2.69041 7.34083 3.28456 8.01713 4.03004 8.48906C4.77552 8.96098 5.64088 9.20862 6.52316 9.20246L6.42195 9.16565ZM20.1519 2.03385C20.5716 1.6114 21.0893 1.29914 21.6587 1.12481C22.2281 0.950477 22.8317 0.919465 23.416 1.03453C24.0003 1.1496 24.5473 1.40719 25.0081 1.78441C25.469 2.16164 25.8294 2.64683 26.0577 3.19689C26.2859 3.74695 26.3748 4.34487 26.3164 4.93753C26.258 5.5302 26.0541 6.09927 25.7229 6.59421C25.3917 7.08915 24.9434 7.49463 24.4178 7.77466C23.8922 8.05469 23.3057 8.20059 22.7101 8.19941C21.7605 8.19462 20.8508 7.81652 20.1776 7.14675C19.5044 6.47698 19.1216 5.56929 19.112 4.6197C19.1036 4.14105 19.1913 3.66558 19.3699 3.22142C19.5485 2.77726 19.8144 2.37344 20.1519 2.03385ZM11.9618 4.19639C12.2961 3.85773 12.6945 3.58896 13.1337 3.4057C13.5729 3.22244 14.0441 3.12836 14.52 3.12893C15.4792 3.12893 16.3991 3.50995 17.0773 4.18817C17.7555 4.8664 18.1365 5.78628 18.1365 6.74544C18.1365 7.7046 17.7555 8.62447 17.0773 9.3027C16.3991 9.98093 15.4792 10.362 14.52 10.362C13.8044 10.3649 13.104 10.155 12.508 9.75881C11.9121 9.36265 11.4473 8.79817 11.1731 8.13716C10.8988 7.47615 10.8274 6.7485 10.9678 6.04677C11.1083 5.34504 11.4542 4.70093 11.9618 4.19639ZM3.86379 2.03385C4.19751 1.69436 4.59575 1.42504 5.03508 1.24172C5.47442 1.0584 5.9459 0.964777 6.42195 0.966376C7.38036 0.968805 8.29881 1.35061 8.97651 2.02832C9.65422 2.70602 10.0361 3.62449 10.0385 4.5829C10.0361 5.54131 9.65422 6.45976 8.97651 7.13747C8.29881 7.81517 7.38036 8.19698 6.42195 8.19941C5.46635 8.18522 4.55379 7.79992 3.87715 7.125C3.20051 6.45008 2.8129 5.53845 2.79628 4.5829C2.79488 4.10825 2.8886 3.63812 3.07195 3.2003C3.25529 2.76249 3.52457 2.36586 3.86379 2.03385Z" fill="#19495C"/>
</g>
<path d="M5.03208 22.3455H1.76636V29.1265H5.03208V22.3455Z" stroke="#19495C" stroke-miterlimit="10"/>
<path d="M5.03165 22.3455L7.77766 21.307C8.52035 21.0284 9.31112 20.8977 10.1048 20.9224L14.7319 21.0608C15.1277 21.0719 15.5035 21.2356 15.7795 21.5171C16.0554 21.7987 16.2097 22.1759 16.2096 22.5686V22.5686C16.21 22.9214 16.0857 23.2632 15.8582 23.5345C15.6307 23.8058 15.3145 23.9893 14.9646 24.0532L10.9581 24.7225C10.9426 24.7225 10.9278 24.7286 10.9169 24.7394C10.906 24.7502 10.8999 24.7649 10.8999 24.7802C10.8999 24.7955 10.906 24.8102 10.9169 24.821C10.9278 24.8318 10.9426 24.8379 10.9581 24.8379C12.3892 25.1323 13.7853 25.5745 15.1236 26.1572C16.6324 26.9264 23.2414 23.5686 25.5064 22.3801C25.7286 22.2666 25.9816 22.227 26.2282 22.2671C26.4748 22.3073 26.7018 22.4251 26.8756 22.6032V22.6032C26.9855 22.7246 27.0682 22.8678 27.1182 23.0233C27.1682 23.1787 27.1844 23.3429 27.1657 23.505C27.147 23.6671 27.0938 23.8235 27.0097 23.9637C26.9256 24.104 26.8125 24.2249 26.6778 24.3186L20.7824 28.238C19.0509 29.388 17.0136 30.0012 14.9297 29.9996H11.5166C10.2938 30.0109 9.07796 29.8158 7.92117 29.4226C6.99476 29.0827 5.99605 28.9834 5.02002 29.1342L5.03165 22.3455Z" stroke="#19495C" stroke-miterlimit="10"/>
<defs>
<clipPath id="clip0_145_1350">
<rect width="27.9843" height="18.5703" fill="white" transform="translate(0.569336)"/>
</clipPath>
</defs>
</svg>
