<svg width="17" height="16" viewBox="0 0 17 16" fill="none" xmlns="http://www.w3.org/2000/svg">
<path d="M0 4.28859C0.0950765 3.54157 0.324726 2.81795 0.677836 2.15282C1.59425 0.638082 3.02568 0.081417 4.68053 0.0435486C6.93496 -0.0145162 9.19065 -0.0145162 11.4476 0.0435486C12.9623 0.081417 14.3407 0.585066 15.2723 1.91046C15.8342 2.75118 16.1261 3.74332 16.1092 4.75437C16.1433 6.92044 16.1584 9.0903 16.1092 11.2564C16.0675 12.9983 15.4616 14.4903 13.8371 15.3765C13.0891 15.7711 12.2554 15.9753 11.4097 15.971C9.18308 15.9975 6.95642 16.0202 4.73355 15.971C3.06355 15.9293 1.61319 15.3689 0.685417 13.8541C0.330703 13.191 0.100932 12.4684 0.00756951 11.7222L0 4.28859ZM8.07732 1.56964C6.97156 1.56964 5.86581 1.54692 4.76006 1.56964C3.03326 1.6113 1.97294 2.42168 1.65864 3.90612C1.58645 4.22321 1.54585 4.54667 1.53746 4.87177C1.53746 6.96589 1.49959 9.06001 1.53746 11.1503C1.57532 13.2407 2.63185 14.3464 4.63888 14.4222C6.91098 14.5055 9.18308 14.4979 11.4552 14.4222C13.129 14.3692 14.106 13.5626 14.443 12.116C14.5073 11.8579 14.5453 11.594 14.5566 11.3283C14.5566 8.94261 14.6967 6.55312 14.4847 4.1712C14.4455 3.52178 14.1729 2.90841 13.717 2.44421C13.2612 1.98001 12.6529 1.69629 12.0043 1.64538C10.7016 1.4674 9.38756 1.59615 8.07732 1.56964Z" fill="white"/>
<path d="M12.2353 8.03002C12.2353 8.85389 11.991 9.65925 11.5333 10.3443C11.0756 11.0293 10.425 11.5632 9.66389 11.8785C8.90274 12.1937 8.0652 12.2762 7.25717 12.1155C6.44913 11.9548 5.70691 11.5581 5.12435 10.9755C4.5418 10.3929 4.14507 9.65071 3.98434 8.84268C3.82361 8.03465 3.9061 7.1971 4.22138 6.43595C4.53665 5.6748 5.07057 5.02423 5.75558 4.56652C6.4406 4.10881 7.24596 3.8645 8.06982 3.8645C9.17213 3.87243 10.2271 4.31385 11.0065 5.09332C11.786 5.87279 12.2274 6.92771 12.2353 8.03002ZM10.6865 8.03002C10.6971 7.50362 10.5506 6.986 10.2658 6.54316C9.98099 6.10033 9.57076 5.75233 9.08742 5.54354C8.60407 5.33476 8.0695 5.27464 7.55186 5.37086C7.03421 5.46707 6.55695 5.71526 6.18091 6.08378C5.80487 6.4523 5.54709 6.92446 5.44044 7.44005C5.33378 7.95565 5.38309 8.49133 5.58207 8.97879C5.78105 9.46626 6.12068 9.88343 6.55767 10.1771C6.99467 10.4708 7.50923 10.6277 8.03574 10.6278C8.73028 10.6239 9.39553 10.3475 9.88842 9.85819C10.3813 9.36884 10.6625 8.70559 10.6714 8.01109L10.6865 8.03002Z" fill="white"/>
<path d="M12.349 2.76239C12.6165 2.75936 12.8743 2.86247 13.0659 3.04914C13.2576 3.23581 13.3674 3.49083 13.3714 3.75833C13.3556 4.01727 13.2416 4.26042 13.0527 4.43818C12.8637 4.61594 12.6141 4.71491 12.3547 4.71491C12.0952 4.71491 11.8456 4.61594 11.6566 4.43818C11.4677 4.26042 11.3537 4.01727 11.3379 3.75833C11.3384 3.6264 11.365 3.49588 11.4162 3.37428C11.4673 3.25268 11.5421 3.14241 11.636 3.04983C11.73 2.95725 11.8414 2.88418 11.9638 2.83485C12.0861 2.78552 12.217 2.76089 12.349 2.76239Z" fill="white"/>
</svg>
