<svg width="11" height="18" viewBox="0 0 11 18" fill="none" xmlns="http://www.w3.org/2000/svg">
<g clip-path="url(#clip0_58:906)">
<path d="M6.6216 6.66375C6.42468 6.53965 6.2124 6.44181 5.99013 6.37271L5.94193 6.35788C5.61986 6.25761 5.28117 6.22191 4.94527 6.2528C4.60937 6.2837 4.28287 6.38059 3.98449 6.53792C3.68611 6.69525 3.42172 6.90993 3.20648 7.16965C2.99123 7.42936 2.82936 7.72901 2.73016 8.05141L1.27927 12.7664C1.18006 13.0888 1.14546 13.4276 1.17745 13.7634C1.20945 14.0992 1.3074 14.4254 1.46571 14.7233C1.62402 15.0211 1.83957 15.2848 2.09999 15.4992C2.36041 15.7136 2.66058 15.8745 2.9833 15.9726L3.0315 15.9875C3.35134 16.0859 3.68758 16.1197 4.02063 16.0869C4.35367 16.0541 4.67685 15.9553 4.97131 15.7963C5.26578 15.6373 5.52564 15.4212 5.73575 15.1607C5.94585 14.9003 6.102 14.6006 6.19508 14.2791L6.75369 12.4638" stroke="white" stroke-linecap="round" stroke-linejoin="round"/>
<path d="M3.75971 10.5051C3.98999 10.6755 4.24617 10.8078 4.51845 10.8968L4.56665 10.9117C5.21405 11.0993 5.90932 11.0244 6.5019 10.7032C7.09447 10.3819 7.53666 9.84019 7.73271 9.19527L9.18113 4.4883C9.38157 3.84474 9.32044 3.14813 9.01099 2.54931C8.70154 1.95048 8.16866 1.49766 7.52776 1.28888L7.47956 1.27405C6.82768 1.07345 6.12282 1.14004 5.52003 1.45914C4.91724 1.77825 4.4659 2.32374 4.26531 2.97561L3.81299 4.44554" stroke="white" stroke-linecap="round" stroke-linejoin="round"/>
</g>
<defs>
<clipPath id="clip0_58:906">
<rect width="16.2115" height="6.02572" fill="white" transform="translate(0 15.4944) rotate(-72.8959)"/>
</clipPath>
</defs>
</svg>
