<svg width="9" height="14" viewBox="0 0 9 14" fill="none" xmlns="http://www.w3.org/2000/svg">
<path d="M4.53544 6.09639C5.36834 6.09639 6.04354 5.42119 6.04354 4.5883C6.04354 3.7554 5.36834 3.0802 4.53544 3.0802C3.70254 3.0802 3.02734 3.7554 3.02734 4.5883C3.02734 5.42119 3.70254 6.09639 4.53544 6.09639Z" stroke="white" stroke-linecap="round" stroke-linejoin="round"/>
<path d="M8.06154 4.54244C8.06328 4.01541 7.94701 3.49467 7.72126 3.01843C7.49552 2.54219 7.16602 2.12253 6.75694 1.79023C6.34786 1.45793 5.86958 1.22143 5.35718 1.09807C4.84479 0.974718 4.31127 0.967637 3.79578 1.07735C3.28029 1.18706 2.7959 1.41078 2.37815 1.7321C1.96039 2.05342 1.61987 2.46419 1.38156 2.93427C1.14325 3.40435 1.0132 3.92182 1.00095 4.44871C0.988704 4.97561 1.09457 5.49856 1.31077 5.97921L4.53585 13L7.75584 5.97921C7.95633 5.52668 8.06044 5.03739 8.06154 4.54244Z" stroke="white" stroke-linecap="round" stroke-linejoin="round"/>
</svg>
