<svg width="11" height="16" viewBox="0 0 11 16" fill="none" xmlns="http://www.w3.org/2000/svg">
<path d="M9.13102 11.2825C9.13102 11.2825 8.91259 10.5739 8.27919 10.7323C7.80488 10.8493 6.90733 11.1799 6.69198 11.256C6.22261 10.6804 5.80037 10.0679 5.42939 9.42444C4.9472 8.45239 4.62666 7.40826 4.48038 6.33309L4.41286 5.7213C4.53656 5.66502 5.50005 5.23716 5.94714 4.96697C6.39422 4.69678 6.1717 3.97806 6.1717 3.97806C6.1717 3.97806 5.32303 1.89571 5.10836 1.45532C5.04725 1.33241 4.95433 1.22813 4.83926 1.15331C4.72418 1.07849 4.59116 1.03587 4.45403 1.02989C3.55534 1.185 2.68048 1.28348 1.82224 3.16409C1.0713 4.94819 1.65173 7.35101 2.53243 9.39684C3.32149 11.6208 4.65271 14.0813 6.59964 14.9008C8.54657 15.7202 9.22836 15.0905 9.97647 14.5803C10.0704 14.4802 10.1357 14.3567 10.1657 14.2228C10.1957 14.0888 10.1892 13.9493 10.147 13.8187C9.98974 13.3608 9.14406 11.2713 9.14406 11.2713L9.13102 11.2825Z" stroke="white" stroke-miterlimit="10"/>
</svg>
