<svg width="41" height="22" viewBox="0 0 41 22" fill="none" xmlns="http://www.w3.org/2000/svg">
<path d="M30.0323 1.32275H10.6774C5.33273 1.32275 1 5.65548 1 11.0002C1 16.3449 5.33273 20.6776 10.6774 20.6776H30.0323C35.377 20.6776 39.7097 16.3449 39.7097 11.0002C39.7097 5.65548 35.377 1.32275 30.0323 1.32275Z" stroke="#62D4D4" stroke-miterlimit="10"/>
<path d="M30.0329 20.6776C35.3776 20.6776 39.7103 16.3449 39.7103 11.0002C39.7103 5.65548 35.3776 1.32275 30.0329 1.32275C24.6882 1.32275 20.3555 5.65548 20.3555 11.0002C20.3555 16.3449 24.6882 20.6776 30.0329 20.6776Z" fill="#62D4D4" stroke="#62D4D4" stroke-miterlimit="10"/>
<path d="M9.29102 11.142L11.2523 13.5807L16.4136 8.41943" stroke="#62D4D4" stroke-linecap="round" stroke-linejoin="round"/>
</svg>
