<svg width="22" height="16" viewBox="0 0 22 16" fill="none" xmlns="http://www.w3.org/2000/svg">
<path d="M14.816 2.43213H6.96094V14.8611H14.816V2.43213Z" stroke-miterlimit="10"/>
<path d="M1.34764 7.59863H6.93456V14.8609H1.34764C1.27383 14.8609 1.20304 14.8316 1.15085 14.7794C1.09866 14.7272 1.06934 14.6564 1.06934 14.5826V7.87694C1.06934 7.80312 1.09866 7.73234 1.15085 7.68015C1.20304 7.62795 1.27383 7.59863 1.34764 7.59863V7.59863Z"  stroke-miterlimit="10"/>
<path d="M14.8164 7.59863H20.4033C20.4771 7.59863 20.5479 7.62795 20.6001 7.68015C20.6523 7.73234 20.6816 7.80312 20.6816 7.87694V14.5826C20.6816 14.6564 20.6523 14.7272 20.6001 14.7794C20.5479 14.8316 20.4771 14.8609 20.4033 14.8609H14.8164V7.59863Z"  stroke-miterlimit="10"/>
<path d="M15.2547 1H6.5244C6.37069 1 6.24609 1.1246 6.24609 1.2783V2.15356C6.24609 2.30727 6.37069 2.43187 6.5244 2.43187H15.2547C15.4084 2.43187 15.533 2.30727 15.533 2.15356V1.2783C15.533 1.1246 15.4084 1 15.2547 1Z"  stroke-miterlimit="10"/>
<path d="M9.91688 4.35254H8.84959C8.69589 4.35254 8.57129 4.47714 8.57129 4.63084V5.69813C8.57129 5.85183 8.69589 5.97643 8.84959 5.97643H9.91688C10.0706 5.97643 10.1952 5.85183 10.1952 5.69813V4.63084C10.1952 4.47714 10.0706 4.35254 9.91688 4.35254Z"  stroke-width="0.5" stroke-miterlimit="10"/>
<path d="M12.9364 4.35254H11.8691C11.7154 4.35254 11.5908 4.47714 11.5908 4.63084V5.69813C11.5908 5.85183 11.7154 5.97643 11.8691 5.97643H12.9364C13.0901 5.97643 13.2147 5.85183 13.2147 5.69813V4.63084C13.2147 4.47714 13.0901 4.35254 12.9364 4.35254Z"  stroke-width="0.5" stroke-miterlimit="10"/>
<path d="M9.91688 7.95361H8.84959C8.69589 7.95361 8.57129 8.07821 8.57129 8.23192V9.2992C8.57129 9.45291 8.69589 9.57751 8.84959 9.57751H9.91688C10.0706 9.57751 10.1952 9.45291 10.1952 9.2992V8.23192C10.1952 8.07821 10.0706 7.95361 9.91688 7.95361Z"  stroke-width="0.5" stroke-miterlimit="10"/>
<path d="M12.9364 7.95361H11.8691C11.7154 7.95361 11.5908 8.07821 11.5908 8.23192V9.2992C11.5908 9.45291 11.7154 9.57751 11.8691 9.57751H12.9364C13.0901 9.57751 13.2147 9.45291 13.2147 9.2992V8.23192C13.2147 8.07821 13.0901 7.95361 12.9364 7.95361Z"  stroke-width="0.5" stroke-miterlimit="10"/>
<path d="M9.66697 11.5063H11.9644C12.0382 11.5063 12.109 11.5357 12.1611 11.5879C12.2133 11.6401 12.2427 11.7108 12.2427 11.7847V14.8585H9.38867V11.7847C9.38867 11.7108 9.41799 11.6401 9.47019 11.5879C9.52238 11.5357 9.59316 11.5063 9.66697 11.5063Z"  stroke-width="0.5" stroke-miterlimit="10"/>
<path d="M2.23242 9.57764H3.45417" stroke-width="0.5" stroke-miterlimit="10"/>
<path d="M4.57227 9.57764H5.79401" stroke-width="0.5" stroke-miterlimit="10"/>
<path d="M2.23242 11.2295H3.45417" stroke-width="0.5" stroke-miterlimit="10"/>
<path d="M4.57227 11.2295H5.79401" stroke-width="0.5" stroke-miterlimit="10"/>
<path d="M2.23242 12.8809H3.45417" stroke-width="0.5" stroke-miterlimit="10"/>
<path d="M4.57227 12.8809H5.79401" stroke-width="0.5" stroke-miterlimit="10"/>
<path d="M15.9629 9.57764H17.1846" stroke-width="0.5" stroke-miterlimit="10"/>
<path d="M18.3027 9.57764H19.5245" stroke-width="0.5" stroke-miterlimit="10"/>
<path d="M15.9629 11.2295H17.1846" stroke-width="0.5" stroke-miterlimit="10"/>
<path d="M18.3027 11.2295H19.5245" stroke-width="0.5" stroke-miterlimit="10"/>
<path d="M15.9629 12.8809H17.1846" stroke-width="0.5" stroke-miterlimit="10"/>
<path d="M18.3027 12.8809H19.5245" stroke-width="0.5" stroke-miterlimit="10"/>
</svg>
