<svg width="20" height="19" viewBox="0 0 20 19" fill="none" xmlns="http://www.w3.org/2000/svg">
    <path
        d="M18.2095 1.00001H1.85012C1.64874 1.00001 1.45561 1.08001 1.31322 1.2224C1.17082 1.3648 1.09082 1.55793 1.09082 1.75931V12.9256C1.09082 13.1269 1.17082 13.3201 1.31322 13.4625C1.45561 13.6049 1.64874 13.6849 1.85012 13.6849H5.78064L4.31669 17L9.26451 13.6849H18.213C18.3126 13.6849 18.4113 13.6652 18.5033 13.627C18.5953 13.5888 18.6789 13.5329 18.7493 13.4624C18.8196 13.3918 18.8754 13.3081 18.9134 13.216C18.9513 13.1239 18.9708 13.0252 18.9706 12.9256V1.75931C18.9708 1.65939 18.9512 1.56041 18.913 1.46807C18.8749 1.37573 18.8188 1.29186 18.7481 1.22129C18.6773 1.15071 18.5933 1.09482 18.5009 1.05685C18.4085 1.01887 18.3095 0.999554 18.2095 1.00001Z"
        fill="#FFC122" stroke="#FFC122" stroke-miterlimit="10" />
</svg>