<svg viewBox="0 0 19 16" fill="none" xmlns="http://www.w3.org/2000/svg">
<g clip-path="url(#clip0_602_1293)">
<path d="M0.577247 16H18.0928C18.1686 16 18.2436 15.9851 18.3136 15.956C18.3836 15.927 18.4472 15.8845 18.5008 15.8309C18.5544 15.7773 18.5971 15.7137 18.6261 15.6436C18.6551 15.5736 18.67 15.4985 18.67 15.4227V3.07667C18.67 3.00086 18.6551 2.92579 18.6261 2.85575C18.5971 2.78572 18.5544 2.72208 18.5008 2.66847C18.4472 2.61486 18.3836 2.57234 18.3136 2.54333C18.2436 2.51432 18.1686 2.49938 18.0928 2.49938H13.3891V0.583835C13.3899 0.507475 13.3757 0.431714 13.3471 0.360916C13.3185 0.290117 13.276 0.225692 13.2224 0.171389C13.1687 0.117086 13.1048 0.0739846 13.0343 0.0445639C12.9639 0.0151432 12.8882 -4.92958e-06 12.8119 1.2033e-09H8.01642C7.94005 -4.92958e-06 7.86443 0.0151432 7.79396 0.0445639C7.72349 0.0739846 7.65963 0.117086 7.60593 0.171389C7.55224 0.225692 7.50979 0.290117 7.48117 0.360916C7.45255 0.431714 7.43834 0.507475 7.43921 0.583835V2.49938H5.33329V2.27634C5.33329 2.1215 5.2719 1.97299 5.16241 1.8635C5.05291 1.754 4.90437 1.69249 4.74952 1.69249H3.1292C2.97436 1.69249 2.82581 1.754 2.71632 1.8635C2.60682 1.97299 2.54527 2.1215 2.54527 2.27634V2.49938H0.577247C0.501193 2.4985 0.425865 2.51283 0.355428 2.54152C0.284992 2.57023 0.220865 2.61273 0.167083 2.66651C0.113301 2.72029 0.0708597 2.78428 0.0421597 2.85471C0.0134598 2.92515 -0.000841107 3.00062 3.82209e-05 3.07667V15.4227C-0.000841107 15.4988 0.0134598 15.5742 0.0421597 15.6447C0.0708597 15.7151 0.113301 15.7791 0.167083 15.8329C0.220865 15.8866 0.284992 15.9291 0.355428 15.9578C0.425865 15.9865 0.501193 16.0009 0.577247 16ZM8.60036 1.16112H12.2345V2.47314H8.60036V1.16112ZM1.15462 3.65394H17.5088V14.8454H1.15462V3.65394Z" fill="#FFC122"/>
<path d="M11.9131 4.82166C11.0296 4.82297 10.1664 5.0858 9.43207 5.57704C8.69777 6.06828 8.12531 6.76594 7.78693 7.58204C7.44855 8.39813 7.35942 9.29613 7.53068 10.1628C7.70193 11.0295 8.12598 11.8262 8.74932 12.4522C9.37265 13.0783 10.1674 13.5058 11.0333 13.6809C11.8993 13.8559 12.7977 13.7707 13.6152 13.4359C14.4328 13.1011 15.133 12.5317 15.6275 11.7996C16.1219 11.0674 16.3885 10.2053 16.3937 9.32185C16.3962 8.73181 16.2823 8.14705 16.0583 7.60117C15.8343 7.0553 15.5047 6.55906 15.0884 6.14092C14.6721 5.72277 14.1773 5.39097 13.6324 5.16457C13.0875 4.93818 12.5031 4.82165 11.9131 4.82166ZM11.9131 12.6084C11.2658 12.6084 10.633 12.4168 10.0943 12.0578C9.55566 11.6989 9.13528 11.1885 8.88609 10.5911C8.6369 9.99364 8.56998 9.33583 8.6939 8.70048C8.81783 8.06513 9.12701 7.48064 9.58246 7.02064C10.0379 6.56064 10.6193 6.24569 11.2534 6.11545C11.8875 5.98521 12.5459 6.04551 13.1458 6.28874C13.7457 6.53198 14.2602 6.94727 14.6245 7.48234C14.9889 8.0174 15.1866 8.64831 15.1931 9.2956C15.1966 9.72855 15.1144 10.1579 14.9511 10.5589C14.7878 10.9599 14.5467 11.3246 14.2418 11.6319C13.9368 11.9393 13.5742 12.1832 13.1745 12.3497C12.7748 12.5162 12.346 12.6019 11.9131 12.6019V12.6084Z" fill="#FFC122"/>
</g>
<defs>
<clipPath id="clip0_602_1293">
<rect width="18.6765" height="16" fill="white"/>
</clipPath>
</defs>
</svg>
