<svg width="19" height="16" viewBox="0 0 19 16" fill="none" xmlns="http://www.w3.org/2000/svg">
<path d="M1.70219 1H16.8285C16.9207 1 17.012 1.01816 17.0972 1.05345C17.1824 1.08873 17.2598 1.14046 17.325 1.20566C17.3902 1.27086 17.4419 1.34826 17.4772 1.43345C17.5125 1.51863 17.5306 1.60994 17.5306 1.70215V12.0278C17.5306 12.214 17.4567 12.3926 17.325 12.5243C17.1933 12.656 17.0147 12.7299 16.8285 12.7299H13.1939L14.9955 14.6592C15.01 14.6748 14.9934 14.6992 14.9736 14.6915L9.97225 12.7331H1.70219C1.60931 12.7331 1.51735 12.7147 1.43164 12.6789C1.34593 12.6431 1.26817 12.5907 1.20287 12.5247C1.13756 12.4586 1.08601 12.3803 1.0512 12.2942C1.01638 12.2081 0.998994 12.1159 1.00004 12.023V1.69738C1.0013 1.51199 1.07583 1.33461 1.20738 1.20397C1.33892 1.07332 1.51679 0.999996 1.70219 1Z"  stroke-miterlimit="10"/>
<path d="M3 4.62256H15.1938"  stroke-width="0.5" stroke-miterlimit="10" stroke-linecap="round"/>
<path d="M3 2.92041H15.1938"  stroke-width="0.5" stroke-miterlimit="10" stroke-linecap="round"/>
<path d="M14.9954 6.09521H3.2C3.08954 6.09521 3 6.18476 3 6.29521V10.1192C3 10.2297 3.08954 10.3192 3.2 10.3192H14.9954C15.1059 10.3192 15.1954 10.2297 15.1954 10.1192V6.29521C15.1954 6.18476 15.1059 6.09521 14.9954 6.09521Z"  stroke-width="0.5" stroke-miterlimit="10"/>
</svg>
