<svg viewBox="0 0 16 16" fill="none" xmlns="http://www.w3.org/2000/svg">
<g clip-path="url(#clip0_602_1287)">
<path d="M8.00006 15.9999C10.1239 16.0014 12.1613 15.1596 13.6647 13.6595C15.1681 12.1594 16.0143 10.1237 16.0173 7.99989C16.0158 5.87862 15.1724 3.84468 13.6724 2.34472C12.1725 0.84476 10.1385 0.00140677 8.01726 -0.00012207C5.89599 0.00140677 3.86217 0.84476 2.36221 2.34472C0.862252 3.84468 0.0188628 5.87862 0.017334 7.99989C0.0188524 10.1182 0.859792 12.1495 2.35601 13.6489C3.85223 15.1484 5.8818 15.9938 8.00006 15.9999ZM8.00006 0.900327C9.88205 0.90338 11.686 1.65235 13.0167 2.98311C14.3475 4.31388 15.0965 6.1179 15.0995 7.99989C15.0965 9.88187 14.3475 11.6859 13.0167 13.0167C11.686 14.3474 9.88205 15.0964 8.00006 15.0994C6.11761 15.0979 4.31264 14.3494 2.98155 13.0184C1.65045 11.6873 0.901996 9.88234 0.900468 7.99989C0.901996 6.11743 1.65045 4.31252 2.98155 2.98142C4.31264 1.65033 6.11761 0.901856 8.00006 0.900327Z" fill="#62D4D4"/>
<path d="M5.66243 12.9869C5.72674 13.0259 5.80071 13.0459 5.87592 13.0446C5.96493 13.0435 6.0516 13.0153 6.12422 12.9638L12.9408 8.34619C13.0032 8.3069 13.0544 8.25234 13.0898 8.18769C13.1251 8.12305 13.1435 8.05045 13.1429 7.97677C13.1434 7.90232 13.1251 7.82896 13.0898 7.76341C13.0545 7.69785 13.0033 7.64221 12.9408 7.6016L6.12422 2.98399C6.05463 2.94169 5.97468 2.91931 5.89325 2.91931C5.81182 2.91931 5.73201 2.94169 5.66243 2.98399C5.58975 3.02168 5.52909 3.07896 5.48727 3.14934C5.44544 3.21973 5.42404 3.30041 5.42568 3.38226V12.5713C5.42069 12.656 5.44047 12.7404 5.48247 12.8142C5.52448 12.8879 5.587 12.9479 5.66243 12.9869ZM6.32615 4.24806L11.8847 7.99987L6.32615 11.7459V4.24806Z" fill="#62D4D4"/>
</g>
<defs>
<clipPath id="clip0_602_1287">
<rect width="16" height="16" fill="white" transform="translate(0 -0.00012207)"/>
</clipPath>
</defs>
</svg>
