<svg width="31" height="31" viewBox="0 0 31 31" fill="none" xmlns="http://www.w3.org/2000/svg">
<path d="M3.27838 14.4401C1.41838 15.0601 0.498376 17.3701 1.27838 19.6001C2.05838 21.8301 4.12838 23.1401 5.99838 22.5301C6.16538 22.4731 6.3262 22.3994 6.47839 22.3101L3.83837 14.3101L3.27838 14.4401Z" stroke="#19495C" stroke-linecap="round" stroke-linejoin="round"/>
<path d="M14.1884 10.2699L3.61841 13.7699L3.7984 14.3199L6.43842 22.3199L6.62842 22.8799L17.1984 19.3899C22.0684 17.7799 29.5184 21.3399 29.5184 21.3399L22.7684 0.909912C21.0084 5.05991 14.1884 10.2699 14.1884 10.2699Z" stroke="#19495C" stroke-linecap="round" stroke-linejoin="round"/>
<path d="M9.99854 24.2199L15.2185 30.5L19.4185 29.11L13.8285 22.95L9.99854 24.2199Z" stroke="#19495C" stroke-linecap="round" stroke-linejoin="round"/>
</svg>
