<svg width="32" height="32" viewBox="0 0 32 32" fill="none" xmlns="http://www.w3.org/2000/svg">
<path d="M29.1836 15.2097C30.5534 13.7275 31.3643 11.8841 31.3643 9.89671C31.3643 4.98753 26.4281 1 20.3408 1C14.2534 1 9.31726 4.98277 9.31726 9.89671C9.31726 14.8106 14.2534 18.7934 20.3408 18.7934C21.9239 18.7979 23.495 18.5179 24.9791 17.9668V17.9668L30.6437 20.9994L29.1836 15.2081V15.2097Z" stroke="#19495C" stroke-linecap="round" stroke-linejoin="round"/>
<path d="M22.8221 21.6898C21.7944 25.7439 17.3492 28.7939 12.0235 28.7939C10.4403 28.7985 8.86922 28.5185 7.38511 27.9673L1.72054 30.9999L3.18063 25.2086C1.81081 23.7264 1 21.883 1 19.8956C1 16.6286 3.18221 13.7718 6.43336 12.2246" stroke="#19495C" stroke-linecap="round" stroke-linejoin="round"/>
</svg>
