<svg width="24" height="16" viewBox="0 0 24 16" fill="none" xmlns="http://www.w3.org/2000/svg">
    <path
        d="M11.9121 9.06723C12.6474 9.06765 13.3664 8.84997 13.978 8.44175C14.5896 8.03352 15.0664 7.45308 15.3481 6.77384C15.6298 6.09461 15.7037 5.34709 15.5605 4.62584C15.4173 3.90458 15.0634 3.242 14.5436 2.72189C14.0238 2.20179 13.3614 1.84752 12.6402 1.70391C11.9191 1.5603 11.1715 1.6338 10.4921 1.9151C9.8127 2.1964 9.23199 2.67288 8.82342 3.28426C8.41485 3.89563 8.19678 4.61445 8.19678 5.34978C8.19678 6.33534 8.58814 7.28057 9.28484 7.97766C9.98155 8.67476 10.9266 9.06667 11.9121 9.06723V9.06723Z"
        stroke-width="0.7" stroke-linecap="round" stroke-linejoin="round" />
    <path
        d="M6.94141 15H16.8869C16.8869 12.7214 16.0325 10.7087 14.7265 9.51455C13.9616 10.1884 12.972 10.5513 11.9528 10.5317C10.9335 10.5122 9.95857 10.1117 9.21998 9.40906C7.84861 10.5905 6.94141 12.6518 6.94141 15Z"
        stroke-width="0.7" stroke-linecap="round" stroke-linejoin="round" />
    <path
        d="M15.4417 6.52075C15.9015 7.13313 16.552 7.57509 17.2907 7.77698C18.0294 7.97888 18.8143 7.92922 19.5217 7.63584C20.229 7.34246 20.8187 6.82204 21.1976 6.15659C21.5766 5.49114 21.7234 4.71851 21.6148 3.96045C21.5062 3.20239 21.1485 2.50202 20.598 1.9697C20.0474 1.43738 19.3354 1.10338 18.5742 1.02034C17.8129 0.937308 17.0456 1.10996 16.3933 1.51108C15.7409 1.9122 15.2406 2.51898 14.9712 3.23581"
        stroke-width="0.7" stroke-linecap="round" stroke-linejoin="round" />
    <path
        d="M17.0596 13.405H22.8152C22.8152 11.2952 22.024 9.42382 20.8109 8.30985C20.1008 8.93486 19.1824 9.27132 18.2366 9.25297C17.2909 9.23462 16.3862 8.86278 15.7009 8.21069C15.4907 8.39327 15.2959 8.59298 15.1187 8.80776"
        stroke-width="0.7" stroke-linecap="round" stroke-linejoin="round" />
    <path
        d="M8.74716 3.25056C8.43126 2.55812 7.89535 1.98951 7.22281 1.63319C6.55028 1.27688 5.77883 1.15284 5.0285 1.28038C4.27817 1.40792 3.59103 1.77989 3.07399 2.3384C2.55696 2.89692 2.23902 3.61066 2.16964 4.36859C2.10027 5.12651 2.28337 5.88612 2.69042 6.52921C3.09748 7.17231 3.70566 7.66283 4.42038 7.92446C5.13509 8.18609 5.91624 8.20416 6.64229 7.97585C7.36833 7.74755 7.99855 7.28567 8.4349 6.66208"
        stroke-width="0.7" stroke-linecap="round" stroke-linejoin="round" />
    <path
        d="M8.63956 8.9829C8.50813 8.82869 8.3672 8.68283 8.2176 8.54618C7.50787 9.17105 6.58985 9.50744 5.64442 9.48908C4.699 9.47073 3.79473 9.09896 3.10979 8.44702C1.84392 9.54833 1 11.4619 1 13.6413H6.48546"
        stroke-width="0.7" stroke-linecap="round" stroke-linejoin="round" />
</svg>