<svg width="16" height="16" viewBox="0 0 16 16" fill="none" xmlns="http://www.w3.org/2000/svg">
    <path
        d="M14.8685 5.71678H10.4174C10.3819 5.71678 10.3477 5.70263 10.3225 5.67746C10.2974 5.65229 10.2832 5.61815 10.2832 5.58255V1.13423C10.2832 1.09863 10.2691 1.06449 10.2439 1.03932C10.2187 1.01414 10.1846 1 10.149 1H5.85369C5.81809 1 5.78396 1.01414 5.75879 1.03932C5.73362 1.06449 5.71947 1.09863 5.71947 1.13423V5.58255C5.71947 5.61815 5.70533 5.65229 5.68016 5.67746C5.65498 5.70263 5.62084 5.71678 5.58524 5.71678H1.13423C1.09863 5.71678 1.0645 5.73092 1.03932 5.75609C1.01415 5.78127 1 5.81541 1 5.85101V10.1463C1 10.1819 1.01415 10.216 1.03932 10.2412C1.0645 10.2664 1.09863 10.2805 1.13423 10.2805H5.58524C5.62084 10.2805 5.65498 10.2947 5.68016 10.3199C5.70533 10.345 5.71947 10.3792 5.71947 10.4148V14.8658C5.71947 14.9014 5.73362 14.9355 5.75879 14.9607C5.78396 14.9859 5.81809 15 5.85369 15H10.149C10.1846 15 10.2187 14.9859 10.2439 14.9607C10.2691 14.9355 10.2832 14.9014 10.2832 14.8658V10.4148C10.2832 10.3792 10.2974 10.345 10.3225 10.3199C10.3477 10.2947 10.3819 10.2805 10.4174 10.2805H14.8685C14.9041 10.2805 14.9382 10.2664 14.9634 10.2412C14.9885 10.216 15.0027 10.1819 15.0027 10.1463V5.85101C15.0027 5.81541 14.9885 5.78127 14.9634 5.75609C14.9382 5.73092 14.9041 5.71678 14.8685 5.71678Z"
        stroke-width="0.7" stroke-linecap="round" stroke-linejoin="round" />
</svg>