<svg width="12" height="16" viewBox="0 0 12 16" fill="none" xmlns="http://www.w3.org/2000/svg">
    <path
        d="M6.2036 8.78662C6.97371 8.78706 7.72666 8.55909 8.3672 8.13155C9.00775 7.70402 9.50711 7.09612 9.80212 6.38475C10.0971 5.67338 10.1746 4.8905 10.0246 4.13512C9.8746 3.37975 9.50396 2.68582 8.95956 2.14111C8.41516 1.5964 7.72145 1.22537 6.96617 1.07497C6.21088 0.924568 5.42795 1.00154 4.71641 1.29615C4.00487 1.59076 3.39668 2.08978 2.96878 2.73008C2.54088 3.37038 2.3125 4.1232 2.3125 4.89332C2.3125 5.9255 2.72238 6.91544 3.45204 7.64551C4.1817 8.37559 5.17141 8.78604 6.2036 8.78662V8.78662Z"
        stroke-width="0.7" stroke-linecap="round" stroke-linejoin="round" />
    <path
        d="M1 15.0005H11.416C11.416 12.6141 10.5211 10.5061 9.1534 9.2555C8.35225 9.9612 7.31585 10.3413 6.24841 10.3208C5.18097 10.3004 4.1599 9.88088 3.38636 9.14502C1.95012 10.3824 1 12.5412 1 15.0005Z"
        stroke-width="0.7" stroke-linecap="round" stroke-linejoin="round" />
</svg>