<svg width="14" height="9" viewBox="0 0 14 9" fill="none" xmlns="http://www.w3.org/2000/svg">
<g clip-path="url(#clip0_659_2008)">
<path d="M7.02626 8.86705C4.62806 8.86705 2.31402 7.5207 0.126187 4.85954C0.0579105 4.7685 0.0209961 4.65779 0.0209961 4.544C0.0209961 4.4302 0.0579105 4.31943 0.126187 4.22839C0.231371 4.0601 2.92408 0.136734 6.88951 0.0210317C9.37186 -0.0841524 11.728 1.34635 13.9263 4.22839C13.9906 4.31908 14.0252 4.42756 14.0252 4.53873C14.0252 4.64991 13.9906 4.75832 13.9263 4.84901C13.8211 5.00679 11.2336 8.71976 7.31026 8.89857L7.02626 8.86705ZM1.19905 4.50188C3.16599 6.78438 5.20657 7.88884 7.24714 7.81521C10.0345 7.68899 12.1382 5.37493 12.8114 4.52294C10.9076 2.16682 8.90905 0.988715 6.88951 1.06234C4.07058 1.14649 1.89327 3.60782 1.19905 4.50188Z" fill="#205D76"/>
<path d="M7.00527 6.8789C6.53051 6.88098 6.06582 6.74209 5.67006 6.47984C5.2743 6.21759 4.96528 5.84381 4.78215 5.40578C4.59902 4.96776 4.55002 4.48523 4.64136 4.01934C4.73271 3.55344 4.96029 3.12515 5.29526 2.7887C5.63023 2.45225 6.05752 2.22277 6.52301 2.12938C6.9885 2.03598 7.47124 2.08286 7.91007 2.26407C8.34889 2.44527 8.72407 2.75265 8.98805 3.14725C9.25204 3.54186 9.39295 4.00591 9.39296 4.48067C9.39296 5.1149 9.14174 5.72333 8.69426 6.17277C8.24678 6.62222 7.63949 6.87612 7.00527 6.8789ZM7.00527 3.14488C6.73811 3.1428 6.47637 3.22026 6.25336 3.36739C6.03035 3.51453 5.85614 3.72468 5.75294 3.97112C5.64974 4.21756 5.62218 4.48913 5.6738 4.75127C5.72541 5.01342 5.85386 5.25429 6.04278 5.44321C6.23171 5.63214 6.47256 5.76055 6.73471 5.81217C6.99685 5.86378 7.26843 5.83621 7.51487 5.73301C7.76131 5.6298 7.97147 5.45565 8.1186 5.23264C8.26574 5.00963 8.3432 4.74784 8.34112 4.48067C8.34532 4.30261 8.31388 4.12556 8.24864 3.95982C8.18339 3.79409 8.08565 3.64304 7.96119 3.51563C7.83672 3.38822 7.68804 3.28703 7.52388 3.21794C7.35971 3.14884 7.18339 3.11324 7.00527 3.11329V3.14488Z" fill="#205D76"/>
</g>
<defs>
<clipPath id="clip0_659_2008">
<rect width="14" height="8.86702" fill="white"/>
</clipPath>
</defs>
</svg>
