<?xml version="1.0" standalone="no"?>
<!DOCTYPE svg PUBLIC "-//W3C//DTD SVG 20010904//EN"
 "http://www.w3.org/TR/2001/REC-SVG-20010904/DTD/svg10.dtd">
<svg version="1.0" xmlns="http://www.w3.org/2000/svg"
 width="1258.000000pt" height="982.000000pt" viewBox="0 0 1258.000000 982.000000"
 preserveAspectRatio="xMidYMid meet">

<g transform="translate(0.000000,982.000000) scale(0.100000,-0.100000)"
fill="#000000" stroke="none">
<path d="M0 4910 l0 -4910 6290 0 6290 0 0 4910 0 4910 -6290 0 -6290 0 0
-4910z m5015 3560 c484 -56 813 -337 965 -822 34 -107 22 -106 -33 2 -130 255
-268 415 -459 532 -185 114 -442 164 -707 140 -290 -28 -459 -85 -600 -202
-179 -151 -261 -325 -261 -554 0 -126 24 -214 92 -330 52 -89 204 -242 315
-316 79 -53 103 -76 66 -63 -59 20 -154 70 -226 117 -180 119 -297 268 -353
451 -26 84 -25 294 1 385 93 329 337 550 690 625 188 40 360 52 510 35z m244
-463 c-55 -46 -351 -253 -388 -272 l-35 -17 55 -52 c30 -28 301 -267 602 -531
529 -464 551 -482 658 -537 61 -32 127 -62 147 -68 20 -7 69 -21 107 -33 69
-21 85 -21 983 -24 571 -2 911 0 908 6 -3 5 -51 35 -107 67 -55 32 -96 60 -92
61 17 6 294 -91 332 -115 12 -9 48 -19 78 -23 69 -9 85 -23 92 -80 1 -3 13
-11 27 -18 46 -20 299 -231 278 -231 -16 0 -290 158 -323 186 -32 29 -38 31
-61 19 -14 -7 -110 -45 -215 -84 -104 -40 -199 -76 -210 -81 -11 -4 -40 -15
-65 -25 -25 -10 -54 -21 -65 -25 -11 -5 -50 -20 -87 -34 -38 -14 -98 -38 -135
-52 -38 -14 -77 -29 -88 -34 -25 -10 -141 -55 -220 -85 -259 -100 -383 -147
-400 -154 -11 -5 -39 -16 -62 -26 -73 -31 -110 -85 -139 -205 -33 -138 -1
-476 68 -713 9 -29 15 -36 27 -31 26 11 206 17 289 9 l77 -8 -60 -13 c-136
-29 -228 -44 -265 -44 -29 0 -42 -5 -50 -20 -20 -37 -46 -43 -96 -21 -32 14
-51 18 -67 11 -32 -13 -238 -43 -267 -38 -21 2 -16 7 30 25 30 12 83 32 118
44 34 12 62 27 62 33 -1 6 -155 126 -343 266 -383 285 -338 264 -502 240 -123
-17 -257 -8 -319 21 -63 29 -112 95 -127 172 -19 95 15 90 -528 78 -259 -6
-502 -11 -541 -11 -38 0 -70 -3 -69 -7 0 -5 32 -34 71 -65 38 -32 64 -58 56
-58 -16 0 -206 96 -229 116 -10 9 -39 14 -79 14 -73 0 -100 17 -100 61 0 21
-8 31 -32 44 -65 32 -208 120 -208 127 0 4 10 4 23 -1 12 -5 63 -21 112 -36
50 -14 109 -36 133 -48 l43 -22 197 100 c272 138 398 207 529 289 263 166 312
239 277 410 -28 137 -105 321 -199 476 -31 51 -66 123 -140 285 -27 61 -105
275 -105 290 0 27 -29 29 -53 3 -20 -21 -258 -213 -349 -282 -21 -16 -38 -24
-38 -19 0 10 340 348 382 379 l26 20 -11 77 c-9 66 -9 81 6 112 29 61 87 57
159 -10 20 -19 41 -35 47 -35 6 0 32 15 58 34 27 18 89 55 138 81 215 116 270
144 274 139 2 -2 2 -6 0 -7z m3586 -963 c112 -19 187 -44 292 -95 122 -60 215
-165 267 -302 14 -38 17 -69 14 -155 -3 -98 -6 -113 -37 -177 -96 -193 -313
-312 -631 -345 -115 -12 -238 -12 -265 0 -19 8 -19 9 3 9 71 3 367 90 480 142
197 91 305 223 305 374 1 171 -139 319 -373 393 -133 42 -320 54 -473 31 -66
-10 -253 -55 -269 -65 -23 -14 -138 -52 -138 -46 0 12 147 105 223 141 103 49
186 73 342 100 79 14 163 12 260 -5z m-4906 -1107 c54 -17 45 -24 -39 -32
-241 -24 -377 -96 -394 -208 -13 -88 31 -192 106 -249 82 -61 212 -126 317
-156 71 -21 367 -24 420 -4 40 14 53 8 25 -13 -65 -48 -179 -89 -291 -105
-233 -34 -547 89 -660 258 -53 78 -68 128 -67 217 1 95 30 160 100 224 49 45
85 62 179 85 37 9 260 -3 304 -17z m3477 -1058 c129 -88 172 -200 119 -314
-43 -92 -191 -200 -327 -239 -89 -25 -383 -23 -486 4 -196 53 -323 151 -376
291 -29 76 -17 86 30 26 66 -86 167 -142 314 -173 93 -20 291 -28 386 -15 211
27 384 134 384 236 0 39 -32 109 -74 159 -60 75 -53 81 30 25z m385 -1884
c146 -31 261 -110 321 -221 15 -27 37 -85 50 -129 22 -80 22 -84 23 -735 0
-602 -2 -661 -19 -735 -63 -274 -242 -415 -526 -415 -246 0 -409 102 -493 310
-51 127 -52 138 -52 830 0 711 0 718 62 847 79 170 241 259 475 262 48 1 119
-6 159 -14z m-6603 -217 l-3 -213 -217 -3 -218 -2 0 -175 0 -175 208 -2 207
-3 0 -210 0 -210 -207 -3 -208 -2 -2 -498 -3 -497 -222 -3 -223 -2 0 1098 c0
604 3 1102 7 1105 3 4 204 7 445 7 l438 0 -2 -212z m1086 189 c218 -75 316
-276 316 -652 0 -315 -70 -522 -204 -600 -70 -41 -133 -54 -288 -61 l-148 -7
-2 -431 -3 -431 -209 -3 c-159 -2 -211 1 -217 10 -9 14 -11 2091 -2 2156 l5
43 352 -4 c295 -3 359 -6 400 -20z m1000 -39 c3 -35 11 -103 16 -153 6 -49 14
-130 20 -180 17 -162 40 -378 49 -465 25 -223 43 -392 50 -468 5 -46 13 -88
20 -95 6 -6 11 -7 11 -2 0 14 27 298 50 540 6 55 17 172 25 260 8 88 20 207
26 265 5 58 16 161 22 230 l12 125 208 3 207 2 0 -28 c0 -15 -9 -99 -20 -187
-21 -158 -24 -187 -55 -440 -9 -71 -20 -166 -26 -210 -5 -44 -14 -118 -19
-165 -6 -47 -15 -121 -20 -165 -18 -139 -29 -226 -45 -355 -8 -69 -19 -159
-25 -200 -5 -41 -19 -151 -30 -245 -11 -93 -22 -180 -25 -192 l-5 -23 -299 0
-299 0 -6 27 c-2 16 -10 69 -16 118 -13 111 -27 221 -40 323 -13 102 -29 228
-40 327 -10 90 -45 370 -60 485 -5 41 -21 170 -35 285 -14 116 -30 244 -35
285 -15 114 -31 238 -37 303 l-6 57 210 0 210 0 7 -62z m2195 -60 c17 -172 30
-313 42 -453 5 -66 14 -165 19 -220 5 -55 14 -158 20 -230 22 -255 25 -280 35
-280 6 0 11 18 12 40 1 22 7 90 13 150 5 61 17 189 25 285 8 96 19 220 25 275
5 55 17 188 25 295 9 107 18 210 21 228 l5 32 204 0 204 0 5 -42 c3 -24 8 -77
11 -118 3 -41 12 -156 20 -255 9 -99 20 -229 25 -290 5 -60 16 -191 25 -290 8
-99 18 -215 22 -257 12 -151 16 -121 58 382 8 96 19 222 25 280 5 58 16 195
25 305 9 110 18 219 21 243 l5 42 215 0 214 0 0 -32 c0 -18 -5 -71 -10 -118
-5 -47 -14 -128 -19 -180 -6 -52 -18 -158 -26 -235 -9 -77 -20 -178 -25 -225
-5 -47 -16 -150 -25 -230 -9 -80 -20 -183 -25 -230 -5 -47 -14 -125 -20 -175
-5 -49 -17 -153 -25 -230 -8 -77 -20 -185 -26 -240 -6 -55 -16 -147 -23 -205
l-11 -105 -265 0 -265 0 -7 50 c-3 28 -14 124 -23 215 -8 91 -20 204 -25 253
-19 167 -29 263 -42 382 l-12 120 -13 -75 c-6 -41 -17 -124 -23 -185 -20 -208
-47 -490 -68 -695 l-7 -65 -271 -3 -271 -2 -6 67 c-4 38 -11 111 -17 163 -6
52 -17 158 -26 235 -8 77 -19 178 -24 225 -5 47 -16 153 -25 235 -9 83 -20
188 -25 235 -5 47 -14 128 -19 180 -6 52 -18 160 -26 240 -9 80 -20 183 -25
230 -30 286 -40 386 -40 393 0 4 96 7 214 7 l213 0 12 -122z m3862 112 c147
-28 238 -127 274 -300 33 -155 30 -425 -5 -552 -15 -52 -69 -129 -110 -155
-64 -42 -66 -44 -29 -60 63 -26 97 -70 125 -162 11 -37 14 -139 14 -508 l0
-463 -214 0 -215 0 -3 463 c-3 499 -4 505 -57 526 -14 6 -44 12 -66 13 l-40 3
-5 -500 -5 -500 -222 -3 -223 -2 0 1105 0 1105 364 0 c204 0 387 -4 417 -10z
m1071 -907 l3 -918 228 -3 227 -2 0 -185 0 -185 -450 0 -450 0 0 1105 0 1105
220 0 220 0 2 -917z m1549 894 c164 -55 244 -149 287 -337 7 -28 12 -297 13
-720 2 -665 2 -676 -19 -760 -55 -214 -167 -331 -347 -360 -33 -5 -207 -10
-387 -10 l-328 0 0 1106 0 1106 368 -5 c301 -3 375 -7 413 -20z"/>
<path d="M5494 5760 c-44 -19 -54 -34 -54 -82 0 -127 265 -281 486 -282 84 -1
93 1 127 27 30 23 37 35 37 63 0 61 -51 124 -150 186 -150 94 -346 133 -446
88z m291 -60 c3 -5 14 -10 24 -10 10 0 34 -16 54 -37 31 -30 37 -43 37 -79 0
-61 -31 -84 -116 -84 -61 0 -65 2 -109 43 -36 35 -45 50 -45 78 1 40 20 68 58
85 34 15 89 17 97 4z"/>
<path d="M7588 2581 c-47 -38 -49 -62 -46 -716 3 -571 4 -612 22 -647 27 -55
101 -71 147 -31 38 32 40 79 37 725 -3 619 -3 627 -24 655 -28 37 -97 44 -136
14z"/>
<path d="M1965 2577 c-3 -7 -4 -127 -3 -267 l3 -255 46 1 c65 3 107 27 130 77
15 34 19 66 19 176 0 185 -17 238 -87 267 -41 18 -102 18 -108 1z"/>
<path d="M9010 2375 l0 -205 61 0 c33 0 69 5 80 10 43 23 66 143 54 276 -10
107 -28 124 -125 124 l-70 0 0 -205z"/>
<path d="M11620 1885 l0 -715 60 0 c70 0 111 17 128 55 19 41 17 1274 -2 1320
-19 44 -42 55 -120 55 l-66 0 0 -715z"/>
</g>
</svg>
