<svg viewBox="0 0 16 16" fill="none" xmlns="http://www.w3.org/2000/svg">
    <path
        d="M2.27232 7.4016C1.39228 7.69494 0.957 8.78788 1.32605 9.84298C1.69509 10.8981 2.67448 11.5179 3.55924 11.2293C3.63826 11.2023 3.71435 11.1674 3.78635 11.1252L2.53727 7.34009L2.27232 7.4016Z"
        stroke-width="0.7" stroke-linecap="round" stroke-linejoin="round" />
    <path
        d="M7.43414 5.42854L2.43311 7.08451L2.51827 7.34474L3.76735 11.1298L3.85725 11.3948L8.85827 9.74353C11.1624 8.98178 14.6873 10.6661 14.6873 10.6661L11.4936 1C10.6609 2.96351 7.43414 5.42854 7.43414 5.42854Z"
        stroke-width="0.7" stroke-linecap="round" stroke-linejoin="round" />
    <path d="M5.45215 12.0287L7.92191 15L9.90908 14.3424L7.26425 11.4279L5.45215 12.0287Z" stroke-width="0.7"
        stroke-linecap="round" stroke-linejoin="round" />
</svg>