<svg viewBox="0 0 16 16" fill="none" xmlns="http://www.w3.org/2000/svg">
    <path
        d="M14.1193 7.59606C14.7552 6.90801 15.1315 6.05235 15.1315 5.1298C15.1315 2.85098 12.8402 1 10.0145 1C7.18877 1 4.89746 2.84878 4.89746 5.1298C4.89746 7.41082 7.18877 9.25959 10.0145 9.25959C10.7494 9.26167 11.4787 9.1317 12.1676 8.87587V8.87587L14.7971 10.2836L14.1193 7.59533V7.59606Z"
        stroke-width="0.8" stroke-linecap="round" stroke-linejoin="round" />
    <path
        d="M11.1663 10.6041C10.6892 12.486 8.6258 13.9018 6.15366 13.9018C5.41876 13.904 4.68946 13.774 4.00055 13.5181L1.37109 14.9258L2.04885 12.2375C1.41299 11.5495 1.03662 10.6938 1.03662 9.77128C1.03662 8.25477 2.04959 6.92864 3.55875 6.21045"
        stroke-width="0.8" stroke-linecap="round" stroke-linejoin="round" />
</svg>